<?xml version="1.0" encoding="UTF-8" standalone="no"?>
<svg
   xmlns:dc="http://purl.org/dc/elements/1.1/"
   xmlns:cc="http://creativecommons.org/ns#"
   xmlns:rdf="http://www.w3.org/1999/02/22-rdf-syntax-ns#"
   xmlns:svg="http://www.w3.org/2000/svg"
   xmlns="http://www.w3.org/2000/svg"
   version="1.1"
   id="svg13718"
   viewBox="0 0 227.18793 78.248498"
   height="78.248497"
   width="227.18794">
  <defs
     id="defs13720">
    <clipPath
       clipPathUnits="userSpaceOnUse"
       id="clipPath14154-5">
      <path
         d="m 547.022,796.378 c -1.565,-0.019 -3.342,-0.324 -5.361,-0.984 l 0,0 -6.969,-2.282 c -1.147,-0.375 -2.051,-0.671 -2.336,-0.764 l 0,0 16.744,-17.042 c 4.265,1.616 6.663,4.211 7.586,7.153 l 0,0 c -0.711,5.511 -3.675,10.556 -8.223,13.849 l 0,0 c -0.37,0.041 -0.751,0.065 -1.146,0.07 l 0,0 -0.295,0 z"
         id="path14156-8" />
    </clipPath>
    <linearGradient
       x1="0"
       y1="0"
       x2="1"
       y2="0"
       gradientUnits="userSpaceOnUse"
       gradientTransform="matrix(24.3336,0,0,-24.3336,532.3503,845.0449)"
       spreadMethod="pad"
       id="linearGradient14166-7">
      <stop
         style="stop-opacity:1;stop-color:#f8e100"
         offset="0"
         id="stop14168-8" />
      <stop
         style="stop-opacity:1;stop-color:#f7941e"
         offset="1"
         id="stop14170-7" />
    </linearGradient>
    <clipPath
       clipPathUnits="userSpaceOnUse"
       id="clipPath14130-9">
      <path
         d="m 538.944,771.985 3.917,-11.379 c 3.544,1.16 6.738,3.282 9.181,6.161 l 0,0 -2.942,8.539 -10.156,-3.321 z"
         id="path14132-4" />
    </clipPath>
    <linearGradient
       x1="0"
       y1="0"
       x2="1"
       y2="0"
       gradientUnits="userSpaceOnUse"
       gradientTransform="matrix(13.10008,0,0,-13.10008,538.94,801.5057)"
       spreadMethod="pad"
       id="linearGradient14142-3">
      <stop
         style="stop-opacity:1;stop-color:#f15a22"
         offset="0"
         id="stop14144-9" />
      <stop
         style="stop-opacity:1;stop-color:#ef4123"
         offset="1"
         id="stop14146-2" />
    </linearGradient>
    <clipPath
       clipPathUnits="userSpaceOnUse"
       id="clipPath14120-4">
      <path
         d="M 0,0 595,0 595,841 0,841 0,0 Z"
         id="path14122-2" />
    </clipPath>
    <clipPath
       clipPathUnits="userSpaceOnUse"
       id="clipPath14096-6">
      <path
         d="m 525.383,796.798 c -0.319,-2.443 -3.847,-30.37 -3.863,-30.506 l 0,0 c 0,-0.003 0.002,-0.004 0.003,-0.006 l 0,0 27.577,9.02 c 0,0 -20.045,20.414 -20.912,21.277 l 0,0 c -0.409,0.403 -0.827,0.848 -1.212,1.163 l 0,0 c -0.544,-0.293 -1.077,-0.61 -1.593,-0.948"
         id="path14098-3" />
    </clipPath>
    <linearGradient
       x1="0"
       y1="0"
       x2="1"
       y2="0"
       gradientUnits="userSpaceOnUse"
       gradientTransform="matrix(8.83049,-27.01691,-27.01691,-8.83049,600.9697,822.027)"
       spreadMethod="pad"
       id="linearGradient14108-4">
      <stop
         style="stop-opacity:1;stop-color:#bfd730"
         offset="0"
         id="stop14110-2" />
      <stop
         style="stop-opacity:1;stop-color:#55b047"
         offset="1"
         id="stop14112-8" />
    </linearGradient>
    <clipPath
       clipPathUnits="userSpaceOnUse"
       id="clipPath14072-9">
      <path
         d="m 517.225,785.971 c -3.365,-10.682 2.569,-22.07 13.254,-25.436 l 0,0 c 10.682,-3.361 22.069,2.573 25.434,13.256 l 0,0 c 3.362,10.684 -2.57,22.071 -13.253,25.435 l 0,0 c -2.028,0.637 -4.079,0.941 -6.098,0.941 l 0,0 c -8.618,0 -16.612,-5.537 -19.337,-14.196"
         id="path14074-4" />
    </clipPath>
    <radialGradient
       fx="0"
       fy="0"
       cx="0"
       cy="0"
       r="1"
       gradientUnits="userSpaceOnUse"
       gradientTransform="matrix(25.8681,0,0,-25.8681,529.0506,788.689)"
       spreadMethod="pad"
       id="radialGradient14084-6">
      <stop
         style="stop-opacity:1;stop-color:#0db7e1"
         offset="0"
         id="stop14086-8" />
      <stop
         style="stop-opacity:1;stop-color:#005490"
         offset="1"
         id="stop14088-6" />
    </radialGradient>
  </defs>
  <metadata
     id="metadata13723">
    <rdf:RDF>
      <cc:Work
         rdf:about="">
        <dc:format>image/svg+xml</dc:format>
        <dc:type
           rdf:resource="http://purl.org/dc/dcmitype/StillImage" />
        <dc:title></dc:title>
      </cc:Work>
    </rdf:RDF>
  </metadata>
  <g
     transform="translate(341.66541,-318.45225)"
     id="layer1">
    <g
       transform="translate(0.49998666,-0.5000015)"
       id="g18066">
      <g
         id="g18002">
        <g
           transform="matrix(1.25,0,0,-1.25,-811.54491,1319.661)"
           id="g14068">
          <g
             clip-path="url(#clipPath14072-9)"
             id="g14070">
            <g
               id="g14076">
              <g
                 id="g14082">
                <path
                   id="path14090"
                   style="fill:url(#radialGradient14084-6);stroke:none"
                   d="M 0,0 595,0 595,841 0,841 0,0 Z" />
              </g>
            </g>
          </g>
        </g>
        <g
           transform="matrix(1.25,0,0,-1.25,-811.54491,1319.661)"
           id="g14092">
          <g
             clip-path="url(#clipPath14096-6)"
             id="g14094">
            <g
               id="g14100">
              <g
                 id="g14106">
                <path
                   id="path14114"
                   style="fill:url(#linearGradient14108-4);stroke:none"
                   d="M 0,0 595,0 595,841 0,841 0,0 Z" />
              </g>
            </g>
          </g>
        </g>
        <g
           transform="matrix(1.25,0,0,-1.25,-811.54491,1319.661)"
           id="g14116">
          <g
             clip-path="url(#clipPath14120-4)"
             id="g14118">
            <path
               id="path14124"
               style="fill:#fff9ae;fill-opacity:1;fill-rule:nonzero;stroke:none"
               d="m 532.358,792.3486 6.586,-20.363 10.155,3.32 -16.741,17.043 z" />
          </g>
        </g>
        <g
           transform="matrix(1.25,0,0,-1.25,-811.54491,1319.661)"
           id="g14126">
          <g
             clip-path="url(#clipPath14130-9)"
             id="g14128">
            <g
               id="g14134">
              <g
                 id="g14140">
                <path
                   id="path14148"
                   style="fill:url(#linearGradient14142-3);stroke:none"
                   d="M 0,0 595,0 595,841 0,841 0,0 Z" />
              </g>
            </g>
          </g>
        </g>
        <g
           transform="matrix(1.25,0,0,-1.25,-811.54491,1319.661)"
           id="g14150">
          <g
             clip-path="url(#clipPath14154-5)"
             id="g14152">
            <g
               id="g14158">
              <g
                 id="g14164">
                <path
                   id="path14172"
                   style="fill:url(#linearGradient14166-7);stroke:none"
                   d="M 0,0 595,0 595,841 0,841 0,0 Z" />
              </g>
            </g>
          </g>
        </g>
      </g>
      <g
         id="g18027"
         style="fill:#005490;fill-opacity:1">
        <path
           id="path14182"
           style="fill:#005490;fill-opacity:1;fill-rule:nonzero;stroke:none"
           d="m -334.83791,370.09408 c 0.0975,0.5475 0.2175,1.065 0.3575,1.5375 l 1.64125,5.5975 -4.0875,0 1.70875,-5.595 c 0.1525,-0.47375 0.27625,-0.9925 0.38,-1.54 m -1.37,-3.2025 -5.4575,16.47375 2.9075,0 1.2975,-4.19 5.105,0 1.25375,4.19 3.3075,0 -5.43375,-16.47375 -2.98,0 z" />
        <path
           id="path14184"
           style="fill:#005490;fill-opacity:1;fill-rule:nonzero;stroke:none"
           d="m -316.83841,376.80733 c 0,0.38375 0.0125,0.835 0.0462,1.35 -0.25625,-0.50625 -0.49625,-0.9525 -0.71625,-1.32625 l -5.84875,-9.93875 -2.9925,0 0,16.4725 2.705,0 0,-10.53 c 0,-0.405 -0.0213,-0.905 -0.0625,-1.5025 0.0675,0.14875 0.16625,0.3425 0.2925,0.58875 0.1475,0.28875 0.31375,0.5875 0.4875,0.89125 l 6.19,10.5025 0.0263,0.05 2.575,0 0,-16.4725 -2.7025,0 0,9.915 z" />
        <path
           id="path14186"
           style="fill:#005490;fill-opacity:1;fill-rule:nonzero;stroke:none"
           d="m -305.60916,375.86708 2.3425,0 0,5.18875 c -0.11625,0.0637 -0.28375,0.11875 -0.50375,0.17375 -0.25125,0.06 -0.59875,0.0925 -1.03125,0.0925 -1.095,0 -2.01375,-0.5175 -2.73125,-1.5325 -0.725,-1.02625 -1.095,-2.57875 -1.095,-4.61625 0,-2.14125 0.39375,-3.72875 1.165,-4.715 0.76375,-0.98 1.84125,-1.47625 3.21,-1.47625 0.69625,0 1.27125,0.0625 1.70875,0.185 0.4425,0.125 0.795,0.265 1.05125,0.41625 l 0.0937,0.0538 0.98875,-2.0225 -0.0813,-0.0475 c -0.4625,-0.27125 -1.0375,-0.49375 -1.705,-0.66 -0.66875,-0.16875 -1.48125,-0.25125 -2.41375,-0.25125 -1.06375,0 -2.0525,0.19375 -2.9375,0.5775 -0.88375,0.38125 -1.655,0.9375 -2.29375,1.6525 -0.635,0.7175 -1.14,1.6025 -1.49875,2.63625 -0.355,1.03375 -0.53625,2.21375 -0.53625,3.51125 0,1.375 0.1675,2.6075 0.5,3.65875 0.33125,1.05875 0.8225,1.96 1.44125,2.685 0.62125,0.725 1.3875,1.28625 2.27125,1.66125 0.8825,0.3725 1.88875,0.56375 2.9825,0.56375 1.07125,0 1.95375,-0.0813 2.625,-0.24 0.6675,-0.16125 1.2675,-0.3975 1.7775,-0.69875 l 0.0475,-0.0287 0,-8.81125 -5.3775,0 0,2.04375 z" />
        <path
           id="path14188"
           style="fill:#005490;fill-opacity:1;fill-rule:nonzero;stroke:none"
           d="m -286.13541,366.89158 -3.31375,0 -4.55625,7.26125 0,-7.26125 -3.2025,0 0,16.47375 3.2025,0 0,-8.04 4.55125,8.04 3.5925,0 -5.42875,-8.85 5.155,-7.62375 z" />
        <path
           id="path14190"
           style="fill:#005490;fill-opacity:1;fill-rule:nonzero;stroke:none"
           d="m -278.71766,370.09408 c 0.1,0.5475 0.22,1.065 0.35875,1.5375 l 1.64,5.5975 -4.085,0 1.70875,-5.595 c 0.1525,-0.47375 0.27875,-0.9925 0.3775,-1.54 m -1.37,-3.2025 -5.45625,16.47375 2.9025,0 1.30375,-4.19 5.1025,0 1.25625,4.19 3.30625,0 -5.4325,-16.47375 -2.9825,0 z" />
        <path
           id="path14192"
           style="fill:#005490;fill-opacity:1;fill-rule:nonzero;stroke:none"
           d="m -261.70691,376.04358 c -0.26375,-0.41875 -0.645,-0.825 -1.13375,-1.21875 -0.48875,-0.39 -1.14,-0.75875 -1.95,-1.0875 -0.69875,-0.2975 -1.28375,-0.64125 -1.7375,-1.02 -0.4425,-0.36625 -0.6625,-0.8975 -0.6625,-1.57625 0,-0.69875 0.1925,-1.25875 0.575,-1.66625 0.38125,-0.40375 0.9425,-0.6125 1.6675,-0.6125 0.5075,0 0.97625,0.0813 1.4,0.23375 0.4225,0.1525 0.78,0.32 1.0575,0.48625 l 0.1025,0.0675 0.73,-2.02 -0.0638,-0.045 c -0.37,-0.27 -0.8675,-0.495 -1.47125,-0.6675 -0.6075,-0.17625 -1.3325,-0.2625 -2.15875,-0.2625 -0.765,0 -1.4625,0.13125 -2.07125,0.38875 -0.61125,0.2575 -1.13375,0.6125 -1.55875,1.0625 -0.42375,0.4475 -0.75625,0.96875 -0.99125,1.55625 -0.23,0.585 -0.35,1.21375 -0.35,1.86875 0,0.4025 0.0525,0.81625 0.15625,1.23125 0.10875,0.41875 0.2925,0.8325 0.54375,1.225 0.26,0.39375 0.6125,0.7725 1.0525,1.12375 0.44125,0.3525 1,0.6725 1.67,0.95875 0.89375,0.3725 1.54125,0.7675 1.91375,1.1725 0.36875,0.39375 0.55625,0.89375 0.55625,1.48125 0,0.725 -0.2275,1.31625 -0.6675,1.74875 -0.445,0.4375 -1.06375,0.6575 -1.83625,0.6575 -0.6025,0 -1.12875,-0.0725 -1.57625,-0.22875 -0.4475,-0.1525 -0.8125,-0.32625 -1.0875,-0.51 l -0.10875,-0.07 -0.8,2.29875 0.065,0.0413 c 0.4475,0.28625 0.99875,0.52 1.63875,0.68625 0.63375,0.1675 1.455,0.25375 2.43875,0.25375 0.76125,0 1.47625,-0.12625 2.1275,-0.37375 0.6475,-0.24875 1.2125,-0.6025 1.67375,-1.05 0.4675,-0.4475 0.83625,-0.98875 1.1,-1.60375 0.26625,-0.6175 0.39625,-1.3025 0.39625,-2.03875 0,-0.39875 -0.0387,-0.8125 -0.1175,-1.2275 -0.08,-0.41875 -0.25625,-0.84375 -0.5225,-1.26375" />
        <path
           id="path14194"
           style="fill:#005490;fill-opacity:1;fill-rule:nonzero;stroke:none"
           d="m -252.97916,370.09408 c 0.095,0.5475 0.2175,1.065 0.355,1.5375 l 1.63875,5.5975 -4.08,0 1.70625,-5.595 c 0.15,-0.47375 0.27625,-0.9925 0.38,-1.54 m -1.3725,-3.2025 -5.4575,16.47375 2.90375,0 1.30125,-4.19 5.105,0 1.25375,4.19 3.30875,0 -5.4325,-16.47375 -2.9825,0 z" />
        <path
           id="path14196"
           style="fill:#005490;fill-opacity:1;fill-rule:nonzero;stroke:none"
           d="m -235.81366,368.8082 c 0.13,-0.0537 0.3075,-0.1025 0.5125,-0.1475 0.24625,-0.055 0.54625,-0.0838 0.90125,-0.0838 1.0825,0 1.86125,0.2675 2.31625,0.79625 0.45375,0.5325 0.68125,1.345 0.68125,2.41875 0,0.555 -0.065,1.0525 -0.205,1.4725 -0.13625,0.41625 -0.35875,0.765 -0.66,1.04375 -0.3,0.28375 -0.70375,0.485 -1.1975,0.60625 -0.33,0.0813 -0.7175,0.1225 -1.1425,0.1225 -0.215,0 -0.4425,-0.0113 -0.68125,-0.03 l -0.525,-0.0425 0,-6.15625 z m 6.06,-0.67125 c -0.48875,-0.455 -1.125,-0.82125 -1.88125,-1.08625 -0.75375,-0.26125 -1.67,-0.39375 -2.71875,-0.39375 -0.9475,0 -1.81875,0.0863 -2.58625,0.26 -0.77375,0.17625 -1.42875,0.40125 -1.9525,0.67375 l -0.0538,0.0262 0,15.74875 3.1325,0 0,-6.4275 0.53125,0.04 c 1.22625,0.0937 2.2875,0.0175 3.1575,-0.23125 0.8775,-0.24625 1.605,-0.61 2.165,-1.08125 0.56125,-0.47125 0.98125,-1.0525 1.2475,-1.7225 0.26125,-0.65625 0.39375,-1.375 0.39375,-2.1275 0,-0.7325 -0.11125,-1.42 -0.3475,-2.04125 -0.2325,-0.63125 -0.6,-1.17625 -1.0875,-1.6375" />
        <path
           id="path14198"
           style="fill:#005490;fill-opacity:1;fill-rule:nonzero;stroke:none"
           d="m -219.08079,378.50883 c 0,0.85125 -0.23125,1.505 -0.68125,1.94125 -0.4525,0.43875 -1.0175,0.65875 -1.6825,0.65875 -0.6475,0 -1.21375,-0.22375 -1.68,-0.66 -0.46625,-0.435 -0.70625,-1.08875 -0.70625,-1.94 l 0,-11.6175 -3.2,0 0,11.6425 c 0,0.7525 0.13375,1.44875 0.39625,2.07 0.26375,0.62625 0.64625,1.16875 1.1275,1.61 0.47625,0.44125 1.0575,0.7875 1.7225,1.0375 0.665,0.25 1.41,0.37125 2.22125,0.37125 0.815,0 1.56125,-0.12125 2.22375,-0.37125 0.665,-0.25 1.245,-0.59625 1.72375,-1.0375 0.4825,-0.44125 0.86,-0.98375 1.12125,-1.61 0.26875,-0.62125 0.39875,-1.3175 0.39875,-2.07 l 0,-11.6425 -2.985,0 0,11.6175 z" />
        <path
           id="path14200"
           style="fill:#005490;fill-opacity:1;fill-rule:nonzero;stroke:none"
           d="m -209.85529,368.83133 c 0.1575,-0.0687 0.3475,-0.12375 0.56375,-0.17125 0.24375,-0.055 0.52125,-0.08 0.82875,-0.08 1.0675,0 1.83875,0.265 2.29125,0.79375 0.45375,0.53125 0.68625,1.3625 0.68625,2.465 0,1.05875 -0.2775,1.88625 -0.82375,2.46375 -0.54875,0.575 -1.3975,0.86875 -2.53375,0.86875 -0.215,0 -0.4325,-0.0125 -0.6375,-0.0362 -0.16,-0.0163 -0.2825,-0.0362 -0.375,-0.0588 l 0,-6.245 z m 4.86,6.86 c 0.545,-0.225 1.02,-0.52875 1.405,-0.9075 0.38625,-0.3775 0.68875,-0.83 0.90875,-1.355 0.2175,-0.52375 0.32625,-1.10625 0.32625,-1.7325 0,-1.5475 -0.5125,-2.79125 -1.51375,-3.69125 -0.9975,-0.895 -2.545,-1.34875 -4.59375,-1.34875 -0.9475,0 -1.8175,0.0862 -2.57625,0.2625 -0.7625,0.175 -1.41,0.4 -1.9175,0.67125 l -0.0525,0.03 0,15.74625 3.15375,0 0,-7.2125 4.505,7.2125 3.5775,0 -4.8875,-7.2775 c 0.6,-0.055 1.16,-0.19 1.665,-0.3975" />
        <path
           id="path14202"
           style="fill:#005490;fill-opacity:1;fill-rule:nonzero;stroke:none"
           d="m -194.44916,370.09408 c 0.095,0.545 0.215,1.05875 0.35375,1.5375 l 1.6425,5.5975 -4.085,0 1.70875,-5.595 c 0.15,-0.47375 0.28125,-0.9925 0.38,-1.54 m -1.375,-3.2025 -5.4125,16.34125 -0.045,0.1325 2.90625,0 1.30375,-4.19 5.1025,0 1.235,4.1175 0.0187,0.0725 3.30875,0 -5.4325,-16.47375 -2.985,0 z" />
        <path
           id="path14204"
           style="fill:#005490;fill-opacity:1;fill-rule:nonzero;stroke:none"
           d="m -177.88991,368.24733 3.135,0 0,13.75625 -3.135,0 0,-13.75625 z m 8.48,0 0,-1.4125 -13.85125,0 0,1.4125 2.14875,0 0,13.75625 -2.14875,0 0,1.41 13.85125,0 0,-1.41 -2.11125,0 0,-13.75625 2.11125,0 z" />
        <path
           id="path14206"
           style="fill:#005490;fill-opacity:1;fill-rule:nonzero;stroke:none"
           d="m -299.70241,396.60483 1.07375,0 0,-6.735 -1.07375,0 0,6.735 z" />
        <path
           id="path14208"
           style="fill:#005490;fill-opacity:1;fill-rule:nonzero;stroke:none"
           d="m -293.18829,394.53108 c 0,0.0913 0,0.1925 0.005,0.30125 -0.06,-0.1175 -0.12375,-0.225 -0.18125,-0.325 l -2.67125,-4.59 -0.0263,-0.0475 -1.0775,0 0,6.735 0.9275,0 0,-4.85125 c 0,-0.13125 -0.002,-0.26 -0.01,-0.39125 0.085,0.1625 0.165,0.3025 0.2325,0.42375 l 2.81375,4.81875 0.91625,0 0,-6.735 -0.92875,0 0,4.66125 z" />
        <path
           id="path14210"
           style="fill:#005490;fill-opacity:1;fill-rule:nonzero;stroke:none"
           d="m -289.71991,390.6422 c 0.0875,-0.0337 0.18125,-0.0575 0.2775,-0.0725 0.12125,-0.0188 0.26375,-0.0263 0.43375,-0.0263 0.59875,0 1.02625,0.2075 1.31,0.6375 0.2875,0.4375 0.43,1.105 0.43,1.985 0,0.90125 -0.13375,1.59 -0.40375,2.05125 -0.26375,0.45 -0.69875,0.665 -1.3275,0.665 -0.2925,0 -0.53375,-0.0312 -0.72,-0.0937 l 0,-5.14625 z m 2.8375,0.0625 c -0.23625,-0.29625 -0.53875,-0.53 -0.8875,-0.68875 -0.35,-0.16125 -0.75875,-0.24 -1.225,-0.24 -0.365,0 -0.70125,0.0312 -0.99375,0.1 -0.29375,0.0713 -0.54875,0.16 -0.74125,0.27375 l -0.0537,0.025 0,6.12875 0.0512,0.03 c 0.17875,0.10875 0.42,0.1925 0.735,0.2625 0.30875,0.0675 0.66,0.10375 1.04375,0.10375 0.47375,0 0.89375,-0.0888 1.245,-0.2625 0.35,-0.17375 0.645,-0.42375 0.8725,-0.74125 0.2275,-0.30875 0.39375,-0.68625 0.5,-1.1125 0.10375,-0.42625 0.16,-0.9025 0.16,-1.415 0,-0.51125 -0.0588,-0.9825 -0.17625,-1.39625 -0.11625,-0.4125 -0.295,-0.77375 -0.53,-1.0675" />
        <path
           id="path14212"
           style="fill:#005490;fill-opacity:1;fill-rule:nonzero;stroke:none"
           d="m -282.68641,395.85558 c -0.285,0 -0.515,-0.0725 -0.68875,-0.22 -0.17875,-0.15 -0.31875,-0.35 -0.42125,-0.59625 -0.10125,-0.255 -0.17125,-0.54375 -0.21,-0.8575 -0.0338,-0.3225 -0.055,-0.64875 -0.055,-0.97375 0,-0.32125 0.0213,-0.65125 0.06,-0.97625 0.04,-0.31875 0.11625,-0.6075 0.2175,-0.85625 0.10375,-0.2425 0.24875,-0.445 0.43,-0.6 0.1725,-0.15125 0.39375,-0.22375 0.6675,-0.22375 0.26875,0 0.48875,0.0763 0.6625,0.22375 0.17375,0.15375 0.31375,0.3575 0.4175,0.6 0.10625,0.24875 0.18125,0.5375 0.22,0.85625 0.0437,0.325 0.0612,0.655 0.0612,0.97625 0,0.325 -0.0175,0.65 -0.0562,0.97375 -0.0338,0.31375 -0.10625,0.6025 -0.21,0.8575 -0.0962,0.24625 -0.24125,0.44625 -0.41625,0.59625 -0.17125,0.1475 -0.39875,0.22 -0.67875,0.22 m 1.8975,-5.045 c -0.19875,-0.31875 -0.455,-0.57125 -0.76375,-0.75625 -0.3125,-0.185 -0.69375,-0.27875 -1.13375,-0.27875 -0.4425,0 -0.82375,0.0937 -1.13875,0.27875 -0.31375,0.185 -0.5725,0.4375 -0.77,0.75625 -0.19625,0.3125 -0.33875,0.6825 -0.42625,1.10125 -0.0863,0.41125 -0.1325,0.85875 -0.1325,1.32625 0,0.47 0.0462,0.9225 0.1325,1.335 0.0875,0.4175 0.23,0.7875 0.42625,1.10125 0.1975,0.31625 0.45625,0.56625 0.77,0.74875 0.315,0.18625 0.69625,0.2775 1.13875,0.2775 0.44,0 0.82125,-0.0913 1.13125,-0.2775 0.31125,-0.1825 0.5675,-0.4325 0.76625,-0.74875 0.19375,-0.31375 0.33625,-0.68375 0.425,-1.10125 0.0875,-0.4125 0.13125,-0.86125 0.13125,-1.335 0,-0.46875 -0.0437,-0.915 -0.13125,-1.3275 -0.0888,-0.4175 -0.23125,-0.7875 -0.425,-1.1" />
        <path
           id="path14214"
           style="fill:#005490;fill-opacity:1;fill-rule:nonzero;stroke:none"
           d="m -275.02691,394.53108 c 0,0.0913 0.005,0.1925 0.01,0.30125 -0.0638,-0.1175 -0.12375,-0.225 -0.18125,-0.325 l -2.67125,-4.59 -0.0312,-0.0475 -1.075,0 0,6.735 0.93,0 0,-4.85125 c 0,-0.13125 -0.005,-0.26 -0.007,-0.39125 0.0825,0.1625 0.1575,0.3025 0.2325,0.42375 l 2.80875,4.81875 0.915,0 0,-6.735 -0.93,0 0,4.66125 z" />
        <path
           id="path14216"
           style="fill:#005490;fill-opacity:1;fill-rule:nonzero;stroke:none"
           d="m -272.61966,396.60495 3.22875,0 0,-0.78 -2.155,0 0,-2.3075 1.935,0 0,-0.7775 -1.935,0 0,-2.09 2.155,0 0,-0.78 -3.22875,0 0,6.735 z" />
        <path
           id="path14218"
           style="fill:#005490;fill-opacity:1;fill-rule:nonzero;stroke:none"
           d="m -265.03516,393.65983 c -0.10875,-0.175 -0.26875,-0.34 -0.47125,-0.5 -0.20125,-0.15875 -0.46875,-0.30375 -0.8025,-0.435 -0.15,-0.055 -0.2875,-0.11625 -0.41125,-0.18125 -0.12,-0.065 -0.23125,-0.145 -0.33125,-0.23 -0.0888,-0.0813 -0.15875,-0.18 -0.2125,-0.29 -0.0525,-0.11 -0.075,-0.245 -0.075,-0.40125 0,-0.32125 0.085,-0.58 0.25125,-0.77 0.17,-0.19125 0.40875,-0.28 0.7325,-0.28 0.20625,0 0.395,0.0288 0.56375,0.0913 0.17125,0.0662 0.31125,0.13375 0.4175,0.1975 l 0.10375,0.0612 0.27875,-0.735 -0.0625,-0.0425 c -0.1575,-0.10625 -0.34875,-0.19625 -0.57875,-0.2675 -0.23375,-0.0662 -0.5075,-0.1025 -0.81625,-0.1025 -0.2975,0 -0.57,0.0512 -0.8125,0.155 -0.23875,0.105 -0.445,0.2475 -0.60625,0.42375 -0.165,0.17375 -0.2925,0.38375 -0.385,0.615 -0.0862,0.2325 -0.1325,0.4825 -0.1325,0.74 0,0.16625 0.0225,0.335 0.0675,0.50375 0.0437,0.17 0.12125,0.34 0.2325,0.5025 0.11125,0.1575 0.26375,0.3125 0.45125,0.455 0.18875,0.14 0.42625,0.2675 0.70375,0.37875 0.39875,0.15875 0.68125,0.32875 0.84875,0.505 0.15625,0.17375 0.23375,0.38625 0.23375,0.65625 0,0.35125 -0.0962,0.61875 -0.30125,0.8225 -0.20125,0.20375 -0.47125,0.30375 -0.83,0.30375 -0.25375,0 -0.47125,-0.0325 -0.6425,-0.0913 -0.17625,-0.0575 -0.32625,-0.1275 -0.45,-0.2 l -0.10125,-0.0587 -0.2975,0.7925 0.0662,0.0425 c 0.17875,0.11375 0.38875,0.205 0.635,0.27375 0.24125,0.0713 0.55875,0.105 0.935,0.105 0.3,0 0.57875,-0.0525 0.8325,-0.14875 0.25625,-0.1025 0.475,-0.24125 0.66125,-0.4225 0.18125,-0.18 0.32625,-0.395 0.43125,-0.645 0.10375,-0.25 0.15125,-0.52625 0.15125,-0.8225 0,-0.15125 -0.0163,-0.3125 -0.055,-0.48 -0.0388,-0.175 -0.10875,-0.34875 -0.2225,-0.52125" />
        <path
           id="path14220"
           style="fill:#005490;fill-opacity:1;fill-rule:nonzero;stroke:none"
           d="m -263.61116,396.60483 1.07125,0 0,-6.735 -1.07125,0 0,6.735 z" />
        <path
           id="path14222"
           style="fill:#005490;fill-opacity:1;fill-rule:nonzero;stroke:none"
           d="m -258.77279,391.57508 0.7225,2.35375 -1.68,0 0.7375,-2.35375 c 0.0438,-0.1275 0.0775,-0.2575 0.11125,-0.38875 0.0312,0.13125 0.0675,0.25875 0.10875,0.38875 m -0.53625,-1.705 -2.28,6.7325 1.00625,0 0.6375,-1.95625 2.09875,0 0.61375,1.95625 1.11625,0 -2.2725,-6.7325 -0.92,0 z" />
        <path
           id="path14224"
           style="fill:#005490;fill-opacity:1;fill-rule:nonzero;stroke:none"
           d="m -250.41966,393.65983 c -0.10875,-0.175 -0.26875,-0.34 -0.47125,-0.5 -0.2,-0.15875 -0.46875,-0.30375 -0.8025,-0.435 -0.1475,-0.055 -0.2875,-0.11625 -0.41125,-0.18125 -0.1225,-0.065 -0.23375,-0.145 -0.33125,-0.23 -0.0887,-0.0813 -0.16125,-0.18 -0.215,-0.29 -0.05,-0.11 -0.075,-0.245 -0.075,-0.40125 0,-0.32125 0.0875,-0.58 0.25625,-0.77 0.16875,-0.19125 0.40875,-0.28 0.7275,-0.28 0.21125,0 0.39875,0.0288 0.56625,0.0913 0.17125,0.0662 0.31125,0.13375 0.4175,0.1975 l 0.10375,0.0612 0.27875,-0.735 -0.065,-0.0425 c -0.15,-0.10625 -0.34625,-0.19625 -0.5775,-0.2675 -0.23,-0.0662 -0.50625,-0.1025 -0.81875,-0.1025 -0.29625,0 -0.5675,0.0512 -0.80625,0.155 -0.23875,0.105 -0.4425,0.2475 -0.60875,0.42375 -0.165,0.17375 -0.2925,0.38375 -0.3825,0.615 -0.0888,0.2325 -0.135,0.4825 -0.135,0.74 0,0.16625 0.0237,0.335 0.065,0.50375 0.0438,0.17 0.12375,0.34 0.2375,0.5025 0.10875,0.1575 0.26125,0.3125 0.45125,0.455 0.18625,0.14 0.42375,0.2675 0.70125,0.37875 0.39625,0.15875 0.68125,0.32875 0.84875,0.505 0.1575,0.17375 0.23375,0.38625 0.23375,0.65625 0,0.35125 -0.0962,0.61875 -0.29875,0.8225 -0.20375,0.20375 -0.47375,0.30375 -0.8325,0.30375 -0.25625,0 -0.47375,-0.0325 -0.645,-0.0913 -0.17375,-0.0575 -0.32625,-0.1275 -0.4475,-0.2 l -0.10125,-0.0587 -0.3,0.7925 0.0688,0.0425 c 0.17875,0.11375 0.39125,0.205 0.6325,0.27375 0.245,0.0713 0.55875,0.105 0.94,0.105 0.2975,0 0.57625,-0.0525 0.83,-0.14875 0.25625,-0.1025 0.47625,-0.24125 0.66,-0.4225 0.1825,-0.18 0.3275,-0.395 0.43,-0.645 0.10375,-0.25 0.15375,-0.52625 0.15375,-0.8225 0,-0.15125 -0.0163,-0.3125 -0.0525,-0.48 -0.0387,-0.175 -0.11375,-0.34875 -0.225,-0.52125" />
        <path
           id="path14226"
           style="fill:#005490;fill-opacity:1;fill-rule:nonzero;stroke:none"
           d="m -243.77041,391.57508 0.72,2.35375 -1.6775,0 0.74,-2.35375 c 0.0362,-0.1275 0.0775,-0.2575 0.11125,-0.38875 0.0312,0.13125 0.065,0.25875 0.10625,0.38875 m -0.53625,-1.705 -2.28,6.7325 1.00625,0 0.6375,-1.95625 2.09625,0 0.61875,1.95625 1.11375,0 -2.2725,-6.7325 -0.92,0 z" />
        <path
           id="path14228"
           style="fill:#005490;fill-opacity:1;fill-rule:nonzero;stroke:none"
           d="m -240.16616,396.60483 1.06875,0 0,-6.735 -1.06875,0 0,6.735 z" />
        <path
           id="path14230"
           style="fill:#005490;fill-opacity:1;fill-rule:nonzero;stroke:none"
           d="m -236.53641,390.5992 c 0.155,-0.07 0.375,-0.1025 0.6425,-0.1025 0.4525,0 0.78375,0.10625 0.98625,0.32125 0.21,0.2175 0.31,0.56625 0.31,1.0375 0,0.4425 -0.11875,0.785 -0.35125,1.01625 -0.23625,0.235 -0.61625,0.35375 -1.12625,0.35375 -0.10875,0 -0.2125,-0.009 -0.31375,-0.02 -0.0575,-0.007 -0.10625,-0.0137 -0.1475,-0.0213 l 0,-2.585 z m 1.76375,2.9675 c 0.25625,-0.085 0.47875,-0.21125 0.6625,-0.375 0.17875,-0.165 0.325,-0.36375 0.42625,-0.595 0.10125,-0.23 0.15,-0.49375 0.15,-0.785 0,-0.63875 -0.19625,-1.1475 -0.5925,-1.5025 -0.39,-0.355 -0.97875,-0.5325 -1.7475,-0.5325 -0.3625,0 -0.69125,0.0337 -0.975,0.10625 -0.285,0.0713 -0.52125,0.15625 -0.6975,0.255 l -0.0487,0.03 0,6.4375 1.05875,0 0,-2.86375 1.98875,2.82125 0.0275,0.0425 1.2375,0 -2.15875,-2.90875 c 0.23875,-0.015 0.46375,-0.0613 0.66875,-0.13" />
        <path
           id="path14232"
           style="fill:#005490;fill-opacity:1;fill-rule:nonzero;stroke:none"
           d="m -231.26741,390.58833 c 0.055,-0.0213 0.12625,-0.0387 0.2125,-0.055 0.11625,-0.025 0.26375,-0.0362 0.435,-0.0362 0.47125,0 0.815,0.11125 1.0175,0.3325 0.20875,0.22375 0.315,0.565 0.315,1.015 0,0.2325 -0.0325,0.4375 -0.095,0.61625 -0.06,0.17375 -0.16125,0.32 -0.295,0.43875 -0.14,0.11875 -0.32125,0.205 -0.54875,0.26125 -0.22625,0.0563 -0.51375,0.0638 -0.8425,0.0337 l -0.19875,-0.0175 0,-2.58875 z m 2.44875,-0.23 c -0.19125,-0.18375 -0.4375,-0.3275 -0.7275,-0.43 -0.2875,-0.10125 -0.63375,-0.1525 -1.03,-0.1525 -0.355,0 -0.67875,0.0337 -0.96375,0.10125 -0.28875,0.0675 -0.53,0.16125 -0.72125,0.2725 l -0.05,0.0275 0,6.4275 1.04375,0 0,-2.7075 0.18625,0.0188 c 0.4925,0.05 0.92375,0.0275 1.27875,-0.065 0.36,-0.0937 0.655,-0.24125 0.88875,-0.43375 0.2325,-0.19375 0.40125,-0.43 0.5075,-0.70375 0.10625,-0.26875 0.1625,-0.55875 0.1625,-0.8625 0,-0.29375 -0.0488,-0.57125 -0.1425,-0.82625 -0.0925,-0.25875 -0.2375,-0.48375 -0.4325,-0.66625" />
        <path
           id="path14234"
           style="fill:#005490;fill-opacity:1;fill-rule:nonzero;stroke:none"
           d="m -224.85266,395.85558 c -0.2825,0 -0.5125,-0.0725 -0.68625,-0.22 -0.17625,-0.15 -0.31875,-0.35 -0.41875,-0.59625 -0.10625,-0.25625 -0.17375,-0.54375 -0.21,-0.8575 -0.0388,-0.32625 -0.0575,-0.6525 -0.0575,-0.97375 0,-0.32 0.0213,-0.6475 0.0625,-0.97625 0.0387,-0.31875 0.11125,-0.60875 0.22,-0.85625 0.0987,-0.2425 0.24375,-0.445 0.425,-0.6 0.1725,-0.15125 0.39,-0.22375 0.665,-0.22375 0.27125,0 0.4925,0.0763 0.6625,0.22375 0.17875,0.15375 0.31625,0.3575 0.4225,0.6 0.10375,0.25125 0.18125,0.53875 0.2175,0.85625 0.0412,0.32125 0.0625,0.65 0.0625,0.97625 0,0.32625 -0.0213,0.6525 -0.055,0.97375 -0.0388,0.315 -0.10875,0.60375 -0.21,0.8575 -0.10375,0.24625 -0.24125,0.44625 -0.41875,0.59625 -0.16875,0.1475 -0.39875,0.22 -0.68125,0.22 m 1.9,-5.045 c -0.19875,-0.31875 -0.455,-0.57125 -0.76625,-0.75625 -0.31,-0.185 -0.69125,-0.27875 -1.13375,-0.27875 -0.44,0 -0.82125,0.0937 -1.13875,0.27875 -0.31125,0.185 -0.57,0.4375 -0.76875,0.75625 -0.195,0.3125 -0.3375,0.6825 -0.425,1.10125 -0.0875,0.41625 -0.13,0.86 -0.13,1.32625 0,0.47 0.0425,0.92125 0.13,1.335 0.0875,0.4175 0.23,0.78875 0.425,1.10125 0.19875,0.31625 0.4575,0.56625 0.76875,0.74875 0.3175,0.18625 0.69875,0.2775 1.13875,0.2775 0.4425,0 0.82375,-0.0913 1.13375,-0.2775 0.31125,-0.1825 0.5675,-0.4325 0.76625,-0.74875 0.1925,-0.3125 0.33875,-0.68375 0.425,-1.10125 0.085,-0.4125 0.13125,-0.86375 0.13125,-1.335 0,-0.46875 -0.0462,-0.915 -0.13125,-1.3275 -0.0863,-0.4175 -0.2325,-0.7875 -0.425,-1.1" />
        <path
           id="path14236"
           style="fill:#005490;fill-opacity:1;fill-rule:nonzero;stroke:none"
           d="m -220.07179,390.5992 c 0.1575,-0.07 0.3725,-0.1025 0.645,-0.1025 0.45,0 0.78125,0.10625 0.98625,0.32125 0.20625,0.2175 0.3125,0.56625 0.3125,1.0375 0,0.4425 -0.12125,0.785 -0.35625,1.01625 -0.23625,0.235 -0.61375,0.35375 -1.12375,0.35375 -0.10875,0 -0.215,-0.009 -0.31625,-0.02 -0.0588,-0.007 -0.10375,-0.0137 -0.1475,-0.0213 l 0,-2.585 z m 1.765,2.9675 c 0.25625,-0.085 0.4775,-0.21125 0.65875,-0.375 0.18625,-0.165 0.33125,-0.36375 0.43125,-0.595 0.10125,-0.23 0.15125,-0.49375 0.15125,-0.785 0,-0.63875 -0.2025,-1.1475 -0.59125,-1.5025 -0.39375,-0.355 -0.98375,-0.5325 -1.75,-0.5325 -0.365,0 -0.68875,0.0337 -0.97375,0.10625 -0.28875,0.0713 -0.5225,0.15625 -0.69875,0.255 l -0.0512,0.03 0,6.4375 1.05875,0 0,-2.86375 1.98875,2.82125 0.0325,0.0425 1.23375,0 -2.1575,-2.90875 c 0.23875,-0.015 0.46375,-0.0613 0.6675,-0.13" />
        <path
           id="path14238"
           style="fill:#005490;fill-opacity:1;fill-rule:nonzero;stroke:none"
           d="m -216.28929,390.6482 1.305,0 0,5.95625 1.07125,0 0,-5.95625 1.3,0 0,-0.77875 -3.67625,0 0,0.77875 z" />
        <path
           id="path14240"
           style="fill:#005490;fill-opacity:1;fill-rule:nonzero;stroke:none"
           d="m -205.36191,395.60195 c -0.11875,0.0738 -0.24625,0.1325 -0.3775,0.1775 -0.13,0.045 -0.2925,0.065 -0.4825,0.065 -0.27625,0 -0.515,-0.0675 -0.70875,-0.205 -0.19625,-0.13625 -0.365,-0.32875 -0.49125,-0.56375 -0.1325,-0.24125 -0.22875,-0.5225 -0.28875,-0.8375 -0.0638,-0.31625 -0.0925,-0.655 -0.0925,-1 0,-0.34125 0.0263,-0.6775 0.085,-1.00375 0.0525,-0.31375 0.1425,-0.6 0.2725,-0.845 0.12625,-0.2425 0.29,-0.4375 0.49125,-0.585 0.1975,-0.1425 0.44625,-0.21375 0.74375,-0.21375 0.18625,0 0.35625,0.0237 0.49875,0.0737 0.1425,0.0513 0.2625,0.10625 0.3575,0.16875 l 0.10125,0.0613 0.28,-0.69125 -0.0575,-0.0487 c -0.1575,-0.11125 -0.34375,-0.20375 -0.55875,-0.275 -0.2125,-0.0675 -0.47375,-0.10375 -0.77375,-0.10375 -0.4125,0 -0.7775,0.095 -1.09875,0.28375 -0.315,0.1875 -0.5825,0.4425 -0.7975,0.7625 -0.215,0.31375 -0.38,0.68125 -0.48875,1.09875 -0.11125,0.41125 -0.16875,0.855 -0.16875,1.3175 0,0.46625 0.055,0.91375 0.16625,1.33 0.10875,0.4175 0.27625,0.7875 0.49125,1.1 0.215,0.315 0.4825,0.56625 0.8,0.75 0.31875,0.1875 0.68625,0.2825 1.09625,0.2825 0.26875,0 0.53,-0.0387 0.76,-0.105 0.22875,-0.0713 0.4275,-0.16375 0.58,-0.27625 l 0.0625,-0.0475 -0.3025,-0.72625 -0.0987,0.0562 z" />
        <path
           id="path14242"
           style="fill:#005490;fill-opacity:1;fill-rule:nonzero;stroke:none"
           d="m -201.95404,395.85558 c -0.285,0 -0.515,-0.0725 -0.68875,-0.22 -0.17875,-0.15 -0.32125,-0.35 -0.41875,-0.59625 -0.10375,-0.25375 -0.17375,-0.5425 -0.2125,-0.8575 -0.0337,-0.32125 -0.055,-0.6475 -0.055,-0.97375 0,-0.32625 0.0213,-0.655 0.0575,-0.97625 0.0412,-0.3175 0.11625,-0.605 0.225,-0.85625 0.0987,-0.2425 0.24375,-0.445 0.4225,-0.6 0.175,-0.1475 0.4,-0.22375 0.67,-0.22375 0.27375,0 0.48875,0.0725 0.6625,0.22375 0.17625,0.155 0.31875,0.3575 0.42,0.6 0.10625,0.2475 0.18125,0.5375 0.2175,0.85625 0.0412,0.32875 0.0612,0.65625 0.0612,0.97625 0,0.3175 -0.0175,0.64625 -0.0512,0.97375 -0.0387,0.31375 -0.11125,0.60125 -0.2125,0.8575 -0.10125,0.24625 -0.24125,0.44625 -0.41875,0.59625 -0.16875,0.1475 -0.39875,0.22 -0.67875,0.22 m 1.8975,-5.045 c -0.19875,-0.31875 -0.455,-0.57125 -0.76625,-0.75625 -0.31125,-0.185 -0.68875,-0.27875 -1.13125,-0.27875 -0.4425,0 -0.82375,0.0937 -1.14125,0.27875 -0.31125,0.185 -0.57,0.4375 -0.77,0.75625 -0.19125,0.3125 -0.33625,0.6825 -0.42375,1.1 -0.0862,0.4125 -0.13,0.85875 -0.13,1.3275 0,0.47375 0.0438,0.9225 0.13,1.335 0.0875,0.4175 0.2325,0.7875 0.42375,1.10125 0.2,0.31625 0.45875,0.5725 0.77,0.74875 0.32,0.18625 0.69875,0.2775 1.14125,0.2775 0.44,0 0.82,-0.0913 1.13125,-0.2775 0.31125,-0.1825 0.5675,-0.4325 0.76625,-0.74875 0.195,-0.31375 0.33625,-0.68375 0.425,-1.10125 0.0875,-0.4125 0.13125,-0.86125 0.13125,-1.335 0,-0.46875 -0.0438,-0.915 -0.13125,-1.3275 -0.0888,-0.4175 -0.23,-0.7875 -0.425,-1.1" />
        <path
           id="path14244"
           style="fill:#005490;fill-opacity:1;fill-rule:nonzero;stroke:none"
           d="m -193.82079,389.86995 -1.3725,4.8 c -0.0288,0.1025 -0.0588,0.21125 -0.085,0.32375 -0.0263,-0.11625 -0.055,-0.22625 -0.085,-0.33125 l -1.33375,-4.7925 -1.0875,0 -0.8025,6.73375 0.86,0 0.095,-10e-4 0.005,-0.0975 c 0.004,-0.0163 0.0113,-0.0937 0.0213,-0.24 l 0.007,-0.0475 c 0.0188,-0.1875 0.045,-0.42625 0.075,-0.71375 0.0337,-0.28875 0.065,-0.6075 0.10375,-0.96 0.0338,-0.3525 0.07,-0.695 0.10625,-1.035 0.0387,-0.34 0.07,-0.6525 0.10125,-0.94125 0.0263,-0.28875 0.0512,-0.51875 0.0725,-0.68625 0.0175,-0.17625 0.0263,-0.27 0.0263,-0.27 0.005,-0.0462 0.01,-0.0937 0.015,-0.14625 0.0125,0.0513 0.0238,0.0962 0.0362,0.13875 0,0.02 0,0.0213 0.0725,0.29375 l 0.19625,0.6875 c 0.0788,0.28875 0.17125,0.60125 0.26375,0.94 0.0963,0.33875 0.1925,0.68375 0.28625,1.03375 0.095,0.3525 0.18375,0.6725 0.26625,0.96 0.0825,0.29 0.1475,0.52625 0.19875,0.7125 0.08,0.28875 0.0888,0.30375 0.0962,0.31625 l 0.0238,0.0562 0.70375,0 0.0213,-0.0687 c 0.007,-0.0188 0.0387,-0.1225 0.0925,-0.31625 l 1.23,-4.315 c 0.0487,-0.1825 0.07,-0.24 0.0725,-0.26875 0.0175,-0.0487 0.0287,-0.0987 0.0412,-0.15125 0.005,0.0437 0.007,0.0875 0.01,0.1275 0,0.007 0.0125,0.1 0.0312,0.27875 0.0187,0.17 0.0438,0.4 0.0725,0.68625 0.0237,0.2525 0.0538,0.5225 0.0825,0.8125 l 0.1175,1.16375 c 0.0362,0.3525 0.0662,0.67125 0.1025,0.9575 0.0312,0.28375 0.0525,0.52 0.075,0.7075 0.0187,0.17375 0.0263,0.27125 0.0287,0.285 l 0,0.10125 1.04375,0 -0.8025,-6.73375 -1.085,0 z" />
        <path
           id="path14246"
           style="fill:#005490;fill-opacity:1;fill-rule:nonzero;stroke:none"
           d="m -189.70229,390.58833 c 0.0575,-0.0213 0.12625,-0.0387 0.2125,-0.055 0.11875,-0.025 0.26625,-0.0362 0.435,-0.0362 0.47125,0 0.815,0.11125 1.0175,0.3325 0.20625,0.22375 0.315,0.565 0.315,1.015 0,0.2325 -0.0338,0.4375 -0.095,0.61625 -0.0625,0.17375 -0.16375,0.32 -0.295,0.43875 -0.14,0.11875 -0.32125,0.205 -0.54625,0.26125 -0.22875,0.0563 -0.51625,0.0638 -0.845,0.0337 l -0.19875,-0.0175 0,-2.58875 z m 2.44625,-0.23 c -0.18875,-0.18375 -0.435,-0.3275 -0.725,-0.43 -0.2875,-0.10125 -0.63125,-0.1525 -1.0325,-0.1525 -0.355,0 -0.67375,0.0337 -0.96125,0.10125 -0.28875,0.0675 -0.53,0.16125 -0.71875,0.2725 l -0.05,0.0275 0,6.4275 1.04125,0 0,-2.7075 0.18875,0.0188 c 0.4875,0.05 0.92125,0.0275 1.27625,-0.065 0.3575,-0.0937 0.66,-0.24125 0.88875,-0.43375 0.2325,-0.19375 0.40125,-0.43 0.51,-0.70375 0.10375,-0.26875 0.1575,-0.55875 0.1575,-0.8625 0,-0.29375 -0.0438,-0.57125 -0.1375,-0.82625 -0.095,-0.25875 -0.24,-0.48375 -0.4375,-0.66625" />
        <path
           id="path14248"
           style="fill:#005490;fill-opacity:1;fill-rule:nonzero;stroke:none"
           d="m -183.80241,391.57508 0.7175,2.35375 -1.68,0 0.7425,-2.3525 c 0.0388,-0.12875 0.075,-0.25875 0.11125,-0.39 0.0288,0.13125 0.0675,0.25875 0.10875,0.38875 m -0.53875,-1.705 -2.28125,6.7325 1.01,0 0.635,-1.95625 2.09875,0 0.61375,1.95625 1.11375,0 -2.26875,-6.7325 -0.92125,0 z" />
        <path
           id="path14250"
           style="fill:#005490;fill-opacity:1;fill-rule:nonzero;stroke:none"
           d="m -176.26379,394.53108 c 0,0.0913 0.002,0.18875 0.007,0.30125 -0.0612,-0.1175 -0.12375,-0.225 -0.18375,-0.325 l -2.6975,-4.6375 -1.0775,0 0,6.735 0.9325,0 0,-4.85125 c 0,-0.13125 -0.005,-0.26 -0.0125,-0.39125 0.0825,0.16375 0.16,0.3025 0.235,0.42375 l 2.80875,4.81875 0.9175,0 0,-6.735 -0.93,0 0,4.66125 z" />
        <path
           id="path14252"
           style="fill:#005490;fill-opacity:1;fill-rule:nonzero;stroke:none"
           d="m -170.72654,389.86995 -1.2925,2.8325 -1.245,-2.8325 -1.1675,0 1.83875,3.76125 0,2.9725 1.07125,0 0,-2.9725 1.85375,-3.76125 -1.05875,0 z" />
        <path
           id="path14254"
           style="fill:#005490;fill-opacity:1;fill-rule:nonzero;stroke:none"
           d="m -255.52179,389.83858 c -0.32125,0 -0.5775,0.24375 -0.5775,0.55875 0,0.2825 0.24625,0.52875 0.52875,0.51 l 0.0362,0 c -0.0263,0.30125 -0.28,0.765 -0.62375,1.09625 l 0.57125,0 c 0.45375,-0.51875 0.67125,-0.99125 0.67125,-1.43625 0,-0.43625 -0.24625,-0.72875 -0.60625,-0.72875" />
      </g>
    </g>
  </g>
</svg>
